<?xml version="1.0" encoding="UTF-8"?>
<svg version="1.1" xmlns="http://www.w3.org/2000/svg" width="1280" height="1280">
<path d="M0 0 C0.97150641 -0.00218016 0.97150641 -0.00218016 1.96263921 -0.00440437 C4.12372792 -0.00804151 6.28474507 -0.00458865 8.44583321 -0.0011425 C10.01446161 -0.00229521 11.58308974 -0.00388374 13.15171731 -0.00586975 C17.45517506 -0.01004221 21.75861063 -0.00798179 26.06206846 -0.00488353 C30.70549959 -0.0026213 35.34892689 -0.00611308 39.99235725 -0.00886345 C49.08438472 -0.01331066 58.17640392 -0.01234951 67.26843171 -0.00945081 C74.6538411 -0.0071935 82.03924818 -0.00688567 89.42465782 -0.00797462 C90.47528258 -0.00812786 91.52590734 -0.00828109 92.60836921 -0.00843897 C94.74253574 -0.00875869 96.87670227 -0.0090829 99.0108688 -0.00941156 C119.02183915 -0.01226306 139.03280491 -0.00898405 159.0437745 -0.00361119 C176.23094781 0.00086046 193.41811437 0.0000773 210.60528755 -0.00452995 C230.55338913 -0.00987479 250.5014867 -0.01199253 270.44958889 -0.00891769 C272.57412155 -0.00859913 274.69865421 -0.00828476 276.82318687 -0.00797462 C277.86857904 -0.00782035 278.91397121 -0.00766607 279.99104192 -0.00750712 C287.37451128 -0.00664199 294.7579781 -0.00810469 302.14144707 -0.01045418 C311.12894027 -0.01325119 320.11642473 -0.01251585 329.10391693 -0.00717343 C333.69334825 -0.00453568 338.28276497 -0.00353265 342.8721962 -0.00682259 C347.06627138 -0.0097838 351.26031831 -0.0081957 355.4543909 -0.00284503 C356.97841521 -0.00172014 358.50244186 -0.0023136 360.02646469 -0.00472082 C362.08430718 -0.00772406 364.14215629 -0.00407194 366.19999695 0 C367.34713476 0.00016235 368.49427257 0.0003247 369.67617214 0.00049198 C372.22247505 0.12584114 372.22247505 0.12584114 373.22247505 1.12584114 C373.3229938 3.92036385 373.35863399 6.69020469 373.35186958 9.48521614 C373.35449806 10.79975777 373.35449806 10.79975777 373.35717964 12.14085579 C373.36159937 15.05253742 373.35865974 17.96415884 373.35528755 20.87584114 C373.35596056 22.88983866 373.35693055 24.90383609 373.35818672 26.91783333 C373.35966386 31.14472919 373.35750863 35.37160397 373.35284615 39.59849739 C373.34714885 45.02964646 373.35042777 50.46074613 373.35641861 55.89189339 C373.36002379 60.05244001 373.35888583 64.21297483 373.35629082 68.3735218 C373.35562143 70.37669569 373.35645038 72.37987063 373.35877037 74.38304329 C373.3612962 77.17754666 373.35745729 79.97196885 373.35186958 82.76646614 C373.35389381 83.60286629 373.35591805 84.43926643 373.35800362 85.30101204 C373.33673747 91.01157872 373.33673747 91.01157872 372.22247505 92.12584114 C370.31463831 92.22350768 368.40312605 92.24955436 366.49279118 92.24888897 C365.24026112 92.25088002 363.98773106 92.25287107 362.69724554 92.25492245 C361.28922758 92.25206886 359.88120981 92.24912325 358.47319221 92.24609566 C356.99152564 92.24653123 355.50985914 92.24740587 354.02819306 92.24868482 C349.93727767 92.25093255 345.8463882 92.24690472 341.75547612 92.24190676 C337.35122623 92.23760641 332.94697791 92.23904839 328.54272652 92.23980904 C320.90561702 92.24033454 313.26851604 92.23718503 305.63140869 92.2315712 C294.58930094 92.22345971 283.54719732 92.22084134 272.50508691 92.21958321 C254.59195158 92.21739213 236.6788208 92.21073055 218.76568794 92.20128059 C201.36008922 92.19210791 183.95449172 92.18502637 166.54889107 92.18077278 C165.47682238 92.18051006 164.40475369 92.18024733 163.30019807 92.17997665 C157.92218713 92.17867165 152.54417619 92.17740794 147.16616523 92.17616475 C102.51826447 92.16579041 57.87037211 92.14735118 13.22247505 92.12584114 C13.22247505 128.75584114 13.22247505 165.38584114 13.22247505 203.12584114 C21.52460152 203.11536751 29.82672798 203.10489388 38.38043404 203.09410286 C64.99323587 203.0619519 91.60603718 203.03973438 118.21885332 203.02371048 C122.35783731 203.02120929 126.49682123 203.01862063 130.63580513 203.01597786 C131.45974614 203.01545324 132.28368716 203.01492862 133.13259608 203.0143881 C146.44539847 203.00570331 159.75818345 202.98994402 173.07097553 202.97153555 C186.74759662 202.95278277 200.42420864 202.94171308 214.10084206 202.93766415 C222.52902691 202.93493021 230.95716255 202.926319 239.38533223 202.91000821 C245.1775548 202.89937482 250.9697522 202.89625477 256.7619838 202.89883839 C260.09570612 202.90010988 263.42927449 202.89714538 266.76299286 202.88743019 C301.49576425 202.79123161 331.57746898 207.62566593 357.47247505 232.81334114 C372.7643871 248.3048997 383.29700731 269.99136869 383.36291695 291.98544502 C383.36862709 293.13316887 383.37433723 294.28089272 383.38022041 295.46339607 C383.38133827 296.70866066 383.38245613 297.95392525 383.38360786 299.23692513 C383.38824179 300.57306237 383.39326722 301.9091983 383.39865303 303.24533272 C383.41172984 306.86570336 383.41821356 310.48605548 383.42266369 314.10644603 C383.42560404 316.3750144 383.42971078 318.64357784 383.43416786 320.91214371 C383.44783476 328.0289865 383.45750351 335.14581785 383.46136975 342.26267284 C383.46583877 350.44159893 383.48333605 358.62035692 383.51237035 366.79923195 C383.53409911 373.14348731 383.54408008 379.4876958 383.54541087 385.83198792 C383.54645158 389.61013937 383.5522 393.38813268 383.57023048 397.16624451 C383.58690448 400.72944141 383.58877486 404.29236461 383.58009148 407.85558701 C383.57897337 409.7599216 383.59254332 411.6642479 383.60684395 413.56852913 C383.4832999 439.59220036 373.33698717 462.65483147 355.75372505 481.65318489 C325.98399044 510.73380527 288.72080166 511.61116039 249.50896811 511.48869705 C244.89171802 511.47764668 240.27448522 511.48423555 235.65722847 511.48848152 C226.65205521 511.49407109 217.64696823 511.48388762 208.64180966 511.46819356 C198.14769858 511.45055014 187.65360361 511.44923223 177.15948002 511.44857797 C158.44722417 511.44689603 139.73500737 511.43114853 121.02276802 511.40709114 C102.86651472 511.38376561 84.71028618 511.36965543 66.55401802 511.36607552 C65.43236986 511.36585275 64.3107217 511.36562998 63.15508421 511.36540046 C60.89545973 511.36495786 58.63583525 511.36451584 56.37621077 511.36407439 C55.26156145 511.36385483 54.14691214 511.36363526 52.99848557 511.36340904 C51.33070908 511.36308506 51.33070908 511.36308506 49.62924013 511.36275454 C32.30570643 511.3590592 14.98217671 511.34770601 -2.34135263 511.33527865 C-8.61866237 511.33084154 -14.89597174 511.32740415 -21.17328243 511.32465652 C-31.1125363 511.32023318 -41.05177545 511.31248788 -50.99102001 511.29788211 C-55.53208476 511.2912604 -60.07313647 511.28620679 -64.61420631 511.28542137 C-68.76448314 511.28463787 -72.9147269 511.27926516 -77.06499346 511.27010188 C-78.57170223 511.26758176 -80.07841494 511.2667654 -81.58512549 511.26776066 C-83.62178727 511.26884686 -85.65844943 511.26325945 -87.69510269 511.25726891 C-88.82960779 511.25602241 -89.96411288 511.25477591 -91.13299692 511.25349164 C-93.77752495 511.12584114 -93.77752495 511.12584114 -95.77752495 510.12584114 C-95.80064661 497.88703785 -95.81843913 485.64823971 -95.82933712 473.40941906 C-95.83456634 467.72707602 -95.84166468 462.04474787 -95.8529644 456.36241341 C-95.86379191 450.88354978 -95.86980149 445.40470052 -95.87240219 439.92582703 C-95.87425669 437.83054503 -95.87787776 435.73526386 -95.883255 433.63998795 C-95.89046363 430.71606531 -95.89151597 427.79220281 -95.89105034 424.86827278 C-95.89464561 423.99289864 -95.89824089 423.11752449 -95.90194511 422.21562386 C-95.89157711 416.2398933 -95.89157711 416.2398933 -94.77752495 415.12584114 C-92.81251075 415.02304275 -90.84374576 414.99183085 -88.87605 414.98717594 C-87.58520258 414.9817015 -86.29435517 414.97622705 -84.96439117 414.97058672 C-83.5131407 414.96951031 -82.06189016 414.96852565 -80.61063957 414.96762276 C-79.08359905 414.96306123 -77.55655978 414.95806182 -76.029522 414.95265919 C-71.81320179 414.93902201 -67.59688968 414.93164367 -63.38055313 414.92523253 C-58.84132295 414.91725297 -54.30210976 414.90354685 -49.76289177 414.8905201 C-41.89170105 414.86872252 -34.02050864 414.85059009 -26.14930344 414.83491516 C-14.76872462 414.81224632 -3.3881646 414.78409942 7.99239831 414.75459588 C26.45458032 414.70688326 44.91677 414.66362906 63.37896919 414.62315559 C81.31810287 414.58381931 99.25722972 414.5423976 117.19635201 414.49815559 C118.30127765 414.49543132 119.40620329 414.49270705 120.54461152 414.48990022 C126.08744734 414.47622105 131.63028305 414.46250072 137.17311871 414.44875991 C183.18955747 414.3347375 229.20600986 414.22875812 275.22247505 414.12584114 C274.72747505 355.71584114 274.72747505 355.71584114 274.22247505 296.12584114 C262.90321724 296.1374427 251.58395943 296.14904427 239.9216938 296.16099739 C232.5362769 296.16701101 225.15086166 296.17283569 217.7654438 296.17711067 C216.82367287 296.17765709 215.88190193 296.17820351 214.91159248 296.17876649 C94.5317466 296.24633225 94.5317466 296.24633225 40.06326866 295.77840996 C36.7364994 295.75095687 33.40972177 295.72711887 30.08291817 295.7042408 C24.94784379 295.6682232 19.8129581 295.62233015 14.67804718 295.56784058 C12.85951333 295.5496918 11.04094781 295.53440849 9.22236252 295.52248001 C-3.86001395 295.43197553 -16.94521692 295.11571512 -29.34002495 290.43834114 C-30.05054008 290.17706429 -30.76105522 289.91578743 -31.49310112 289.64659309 C-49.74392048 282.72033647 -65.66243063 271.25205711 -76.77752495 255.12584114 C-77.49037651 254.12939583 -78.20322807 253.13295052 -78.9376812 252.10630989 C-93.51987781 231.13078228 -95.20420039 207.39078703 -95.46502495 182.56334114 C-95.49730826 180.36085596 -95.53036074 178.15838192 -95.56414604 175.95591927 C-95.65915844 169.34605503 -95.72323891 162.73615175 -95.77752495 156.12584114 C-95.78612541 155.13529732 -95.79472588 154.14475349 -95.80358696 153.12419319 C-95.90970728 140.45684848 -95.91325801 127.79292917 -95.77752495 115.12584114 C-95.76495659 113.83242805 -95.75238823 112.53901497 -95.73943901 111.20640755 C-95.41891697 86.93503935 -93.26131382 62.42241446 -78.77752495 42.12584114 C-78.24772026 41.37302864 -77.71791557 40.62021614 -77.1720562 39.84459114 C-74.32553898 35.92239775 -71.30190492 32.46948367 -67.77752495 29.12584114 C-67.05564995 28.36271614 -66.33377495 27.59959114 -65.59002495 26.81334114 C-58.34739759 19.89260833 -50.74113723 14.57595134 -41.77752495 10.12584114 C-40.93834526 9.6836927 -40.09916557 9.24154427 -39.2345562 8.78599739 C-27.41046212 2.90078264 -13.15818844 0.00186067 0 0 Z " fill="#040404" transform="translate(271.7775249481201,385.87415885925293)"/>
<path d="M0 0 C1.33557701 -0.00639748 1.33557701 -0.00639748 2.69813538 -0.01292419 C3.68257629 -0.01247101 4.66701721 -0.01201782 5.68128967 -0.0115509 C6.71210159 -0.01490952 7.74291351 -0.01826813 8.80496216 -0.02172852 C12.23127936 -0.03127054 15.65754788 -0.03318324 19.08387756 -0.03425598 C21.4542035 -0.03746624 23.82452923 -0.04083013 26.19485474 -0.04434204 C31.17080647 -0.05034142 36.14674082 -0.05218111 41.12269592 -0.05158997 C47.51335365 -0.05148828 53.90390042 -0.06514326 60.29453182 -0.08236217 C65.19200151 -0.09345524 70.08944415 -0.09551001 74.98692513 -0.09498024 C77.34374436 -0.09616433 79.7005642 -0.1006099 82.05737114 -0.10831261 C85.34745535 -0.11805852 88.63729568 -0.11525591 91.92738342 -0.10920715 C92.90980011 -0.11482666 93.8922168 -0.12044617 94.90440369 -0.12623596 C96.24421043 -0.11994423 96.24421043 -0.11994423 97.61108398 -0.11352539 C98.38962203 -0.11407016 99.16816008 -0.11461493 99.97029018 -0.1151762 C101.86903381 0.13371277 101.86903381 0.13371277 103.86903381 2.13371277 C104.11743081 5.02386582 104.11743081 5.02386582 104.11512947 8.81416512 C104.11743716 9.51208276 104.11974485 10.21000041 104.12212247 10.92906708 C104.12745859 13.29125 104.11840872 15.65316575 104.10954285 18.01533508 C104.11041418 19.7164796 104.11216382 21.41762385 104.11472118 23.11876667 C104.11921299 27.8117304 104.11116599 32.50460359 104.10116506 37.19755578 C104.09255913 42.25141929 104.09544868 47.30527735 104.0969696 52.35914612 C104.09802027 61.1214075 104.09172472 69.88363919 104.08049393 78.6458931 C104.06426645 91.31476784 104.05903375 103.98362817 104.05651794 116.65251218 C104.05213651 137.20501037 104.03881526 157.75749272 104.01991272 178.3099823 C104.00156551 198.27938253 103.98740334 218.24877847 103.97889709 238.21818542 C103.97837165 239.44830216 103.9778462 240.67841889 103.97730483 241.94581188 C103.97469483 248.11670794 103.9721674 254.28760404 103.96968102 260.45850015 C103.94893456 311.68358197 103.91369685 362.9086466 103.86903381 414.13371277 C105.07831732 414.13702291 106.28760082 414.14033306 107.53352928 414.14374352 C136.21563725 414.2226981 164.89770118 414.3118939 193.57973667 414.41376438 C197.10715837 414.42628381 200.63458037 414.43871649 204.16200256 414.45109558 C204.86427241 414.45356157 205.56654226 414.45602757 206.29009302 414.45856829 C217.6730487 414.49833208 229.05601436 414.53106336 240.4389991 414.56121258 C252.11206734 414.59228604 263.78509129 414.63102683 275.45811236 414.67650282 C282.01758364 414.70181252 288.57702468 414.72358048 295.13653183 414.73705673 C301.30390105 414.74983665 307.47116679 414.77184663 313.63847923 414.80109596 C315.9081085 414.81020371 318.17775444 414.81586936 320.44740105 414.81792641 C323.53405852 414.82122646 326.62041852 414.83664213 329.70701599 414.85523987 C330.61556316 414.85330513 331.52411032 414.8513704 332.46018922 414.84937704 C338.64079139 414.90547035 338.64079139 414.90547035 340.86903381 417.13371277 C341.06260361 420.08098412 341.13119796 422.93396381 341.11195374 425.88200378 C341.11385208 426.78777161 341.11575043 427.69353943 341.1177063 428.62675476 C341.12142091 431.63046331 341.1107009 434.63393184 341.09950256 437.63761902 C341.09831113 439.71744763 341.09785752 441.79727678 341.09811401 443.87710571 C341.09654801 448.23928691 341.08824883 452.60138617 341.07484436 456.96354675 C341.05784383 462.5684279 341.05403025 468.17321899 341.05478954 473.7781229 C341.05451826 478.07335274 341.0490439 482.36856269 341.0417881 486.66378593 C341.03859546 488.73115323 341.03663265 490.79852278 341.03589439 492.86589241 C341.03373771 495.74890647 341.02500843 498.63182301 341.01429749 501.51481628 C341.01497726 502.80913826 341.01497726 502.80913826 341.01567078 504.12960815 C340.98350796 510.01923862 340.98350796 510.01923862 339.86903381 511.13371277 C336.69053382 511.23848536 333.53355771 511.27702388 330.35443115 511.27415466 C329.3427164 511.27712579 328.33100165 511.28009691 327.28862888 511.28315806 C323.86970294 511.29188784 320.45081184 511.29335698 317.03187561 511.29484558 C314.59130274 511.2994712 312.15073059 511.30449551 309.7101593 511.30989075 C303.05412789 511.32305247 296.39811022 511.32950533 289.74206901 511.33390141 C285.57979247 511.33666362 281.41751826 511.34090137 277.2552433 511.34540558 C265.71820948 511.35761029 254.18117752 511.36790173 242.64413738 511.37128067 C241.53518129 511.37161002 241.53518129 511.37161002 240.40382205 511.37194602 C239.66276739 511.3721643 238.92171273 511.37238258 238.15820187 511.37260747 C236.65662046 511.37305093 235.15503905 511.37349749 233.65345764 511.37394714 C232.90862504 511.37416857 232.16379245 511.37439 231.39638916 511.37461814 C219.37249682 511.37855191 207.34866562 511.39595681 195.32479682 511.41930667 C182.96233051 511.44311842 170.5998947 511.45548725 158.23740512 511.45664859 C151.30398509 511.45756076 144.37064433 511.46319498 137.43724632 511.4814682 C130.89801726 511.49864156 124.3589107 511.50004896 117.81965637 511.49132919 C115.43340464 511.4905646 113.04714452 511.49482418 110.66091347 511.50478745 C85.29428576 511.60438866 61.50202193 509.52262688 39.86903381 495.13371277 C39.19098694 494.68640808 38.51294006 494.23910339 37.81434631 493.77824402 C14.12726951 477.02037433 0.66079436 453.62464724 -4.64610481 425.39330769 C-5.12787097 422.15452109 -5.28866653 419.08142515 -5.33430481 415.80880737 C-5.35384594 414.53449797 -5.37338707 413.26018856 -5.39352036 411.94726372 C-5.41026432 410.52333243 -5.42673878 409.09939795 -5.44297791 407.67546082 C-5.46349194 406.13111188 -5.48419603 404.58676546 -5.50506973 403.04242134 C-5.56157014 398.69950467 -5.61001977 394.35653133 -5.65593195 390.01349092 C-5.68601942 387.17340813 -5.71752324 384.33334322 -5.74909592 381.4932766 C-6.43486396 318.51304445 -6.28212024 255.52486794 -6.26042804 192.54184495 C-6.2559042 179.14481164 -6.25678007 165.74778697 -6.26133728 152.35075378 C-6.26670601 136.5619064 -6.26879089 120.77306408 -6.26572502 104.98421592 C-6.26540661 103.30011253 -6.26509224 101.61600914 -6.26478195 99.93190575 C-6.26462768 99.10438113 -6.2644734 98.27685652 -6.26431445 97.4242554 C-6.26346033 91.66623626 -6.26488679 85.90822043 -6.26726151 80.1502018 C-6.27008308 73.16060812 -6.26926959 66.17102565 -6.26398076 59.18143324 C-6.26138397 55.63589139 -6.26026969 52.09036815 -6.26362991 48.54482651 C-6.27277864 35.80449851 -6.23278606 23.08024103 -5.68537903 10.349823 C-5.64664331 9.42191855 -5.60790758 8.49401411 -5.56799805 7.53799134 C-5.19600039 0.01119008 -5.19600039 0.01119008 0 0 Z " fill="#060606" transform="translate(751.1309661865234,385.8662872314453)"/>
<path d="M0 0 C32.67 0 65.34 0 99 0 C100.67870523 3.35741046 100.13798265 7.14809568 100.12939453 10.84008789 C100.13202301 12.21336998 100.13202301 12.21336998 100.13470459 13.61439514 C100.13911772 16.65050127 100.13618724 19.68654949 100.1328125 22.72265625 C100.13348564 24.82490551 100.13445574 26.92715469 100.13571167 29.02940369 C100.13718786 33.43863668 100.13503637 37.84784943 100.13037109 42.25708008 C100.12467036 47.92248931 100.12795549 53.58785121 100.13394356 59.25325871 C100.13754829 63.59480652 100.13641105 67.93634301 100.13381577 72.27789116 C100.13314643 74.36758874 100.13397513 76.45728732 100.13629532 78.54698372 C100.13882079 81.46111926 100.13498291 84.37517693 100.12939453 87.28930664 C100.13141876 88.1615387 100.13344299 89.03377075 100.13552856 89.93243408 C100.11426311 95.88573689 100.11426311 95.88573689 99 97 C95.93081812 97.10065628 92.88409724 97.13614443 89.81445312 97.12939453 C88.3682383 97.13202301 88.3682383 97.13202301 86.89280701 97.13470459 C83.68893664 97.13912493 80.48512098 97.13618447 77.28125 97.1328125 C75.06547027 97.13348549 72.84969061 97.13445547 70.63391113 97.13571167 C65.98330993 97.13718889 61.33272789 97.13503331 56.68212891 97.13037109 C50.70617396 97.1246738 44.73026391 97.12795267 38.75431061 97.13394356 C34.17685606 97.13754852 29.59941225 97.13641088 25.0219574 97.13381577 C22.81782526 97.13314632 20.61369217 97.13397554 18.40956116 97.13629532 C15.33486328 97.13882078 12.26023922 97.13498275 9.18554688 97.12939453 C8.26499008 97.13141876 7.34443329 97.13344299 6.39598083 97.13552856 C0.11426228 97.11426228 0.11426228 97.11426228 -1 96 C-1.10058431 93.08869933 -1.13615204 90.20108504 -1.12939453 87.28930664 C-1.13114685 86.37553757 -1.13289917 85.46176849 -1.13470459 84.52030945 C-1.13912506 81.4835727 -1.13618419 78.44689365 -1.1328125 75.41015625 C-1.13348554 73.30887338 -1.13445557 71.20759059 -1.13571167 69.10630798 C-1.13718896 64.69529481 -1.13503332 60.28430185 -1.13037109 55.87329102 C-1.12467729 50.20907257 -1.12795042 44.54490155 -1.13394356 38.88068485 C-1.13755132 34.53909445 -1.13640952 30.19751534 -1.13381577 25.85592461 C-1.13314691 23.76705355 -1.13397347 21.67818148 -1.13629532 19.5893116 C-1.13882497 16.67287593 -1.13497661 13.75651777 -1.12939453 10.84008789 C-1.13141876 9.96988007 -1.13344299 9.09967224 -1.13552856 8.20309448 C-1.11426311 2.22852621 -1.11426311 2.22852621 0 0 Z " fill="#080808" transform="translate(50,387)"/>
<path d="M0 0 C0.90603973 0.00404846 1.81207947 0.00809692 2.74557495 0.01226807 C3.69850433 0.00876343 4.65143372 0.00525879 5.63323975 0.00164795 C8.79445605 -0.0071804 11.95544997 -0.00131629 15.1166687 0.00543213 C17.30620365 0.0040858 19.4957383 0.00214553 21.68527222 -0.00036621 C26.27864421 -0.00331897 30.87193853 0.00098507 35.46530151 0.01031494 C41.36382733 0.02170952 47.26217117 0.01515086 53.16069031 0.00317001 C57.68329244 -0.00404447 62.20585117 -0.00176255 66.72845459 0.0034256 C68.9038495 0.00476324 71.07924831 0.00311041 73.25463867 -0.00153351 C76.29078668 -0.00659196 79.32663673 0.00110195 82.36276245 0.01226807 C83.26880219 0.0082196 84.17484192 0.00417114 85.1083374 0 C91.32564123 0.04252965 91.32564123 0.04252965 93.5541687 2.27105713 C93.75295518 5.18257923 93.82683159 7.99900746 93.81295776 10.91168213 C93.8164624 11.80609009 93.81996704 12.70049805 93.82357788 13.62200928 C93.83240464 16.58843673 93.82654271 19.5546271 93.8197937 22.52105713 C93.82114008 24.57607062 93.82308038 26.6310838 93.82559204 28.68609619 C93.82854459 32.99699938 93.82424146 37.3078198 93.81491089 41.61871338 C93.80351631 47.15403837 93.81007508 52.68916943 93.82205582 58.2244873 C93.82927089 62.46915151 93.82698811 66.71376948 93.82180023 70.95843506 C93.82046276 72.99985782 93.82211485 75.04128472 93.82675934 77.08270264 C93.83181877 79.93205949 93.82412256 82.781099 93.81295776 85.63043213 C93.81700623 86.48036743 93.82105469 87.33030273 93.82522583 88.20599365 C93.78269655 94.04252928 93.78269655 94.04252928 91.5541687 96.27105713 C88.4251546 96.46483779 85.38491389 96.53315782 82.25509644 96.51397705 C80.80866257 96.51682457 80.80866257 96.51682457 79.33300781 96.51972961 C76.13451091 96.5234449 72.9362393 96.51272319 69.73776245 96.50152588 C67.52341234 96.50033448 65.30906172 96.49988083 63.0947113 96.50013733 C58.45006149 96.49857121 53.80548862 96.49027113 49.16085815 96.47686768 C43.19277342 96.45986778 37.22477325 96.45605354 31.25666714 96.45681286 C26.683499 96.45654158 22.11034953 96.45106737 17.53718758 96.44381142 C15.33584802 96.44061856 13.13450634 96.43865591 10.9331646 96.43791771 C7.86335483 96.43576122 4.79363668 96.42703232 1.72384644 96.4163208 C0.80486069 96.41677399 -0.11412506 96.41722717 -1.06095886 96.41769409 C-7.33135743 96.385531 -7.33135743 96.385531 -8.4458313 95.27105713 C-8.5517259 92.39036878 -8.59260827 89.53352685 -8.59109497 86.65216064 C-8.59445358 85.74814514 -8.59781219 84.84412964 -8.60127258 83.91271973 C-8.61081301 80.90845384 -8.61272723 77.90424349 -8.61380005 74.89996338 C-8.61701044 72.82110063 -8.62037434 70.74223812 -8.62388611 68.66337585 C-8.6298851 64.29944332 -8.63172522 59.93553061 -8.63113403 55.57159424 C-8.63103236 49.96787415 -8.64468668 44.36428062 -8.66190624 38.76059055 C-8.67300123 34.46532095 -8.67505402 30.17008219 -8.67452431 25.87479973 C-8.67570813 23.80825298 -8.68015224 21.74170553 -8.68785667 19.67517281 C-8.6976064 16.78980664 -8.6947985 13.90471837 -8.68875122 11.01934814 C-8.69437073 10.15849106 -8.69999023 9.29763397 -8.70578003 8.41069031 C-8.66595916 0.96939798 -7.38001019 0.05048318 0 0 Z " fill="#0A0A0A" transform="translate(1135.4458312988281,801.7289428710938)"/>
<path d="M0 0 C0.66 0.33 1.32 0.66 2 1 C-2.35227898 6.26191928 -6.93716832 10.85766776 -12.1796875 15.23828125 C-14.2452112 16.96599597 -14.2452112 16.96599597 -15 20 C-15.66 20 -16.32 20 -17 20 C-14.65488864 12.75147398 -9.40440819 8.29934462 -3.76953125 3.515625 C-1.91655093 1.96792368 -1.91655093 1.96792368 0 0 Z " fill="#717070" transform="translate(212,407)"/>
</svg>
